<svg height="512" viewBox="0 0 512 512" width="512" xmlns="http://www.w3.org/2000/svg"><g id="FilledOutline"><path d="m456 256c0 108.77-86.82 197.25-194.94 199.93-1.68.05-3.37.07-5.06.07a199.961 199.961 0 0 1 -199.95-195.99c-.04-1.33-.05-2.67-.05-4.01 0-110.46 89.54-200 200-200a200.97 200.97 0 0 1 23.92 1.42 199.962 199.962 0 0 1 175.82 188.26q.26 5.13.26 10.32z" fill="#0093b9"/><g fill="#85bb40"><path d="m261.06 455.93c-1.68.05-3.37.07-5.06.07a199.115 199.115 0 0 1 -124.52-43.48l20.52-20.52 40-8 40 8z"/><path d="m312 128v24l-48 8-32 32-48-16-32 24 32 32 32 48-24 24-16 48-64-16-8-48-24-24-23.95-3.99c-.04-1.33-.05-2.67-.05-4.01 0-110.46 89.54-200 200-200a200.97 200.97 0 0 1 23.92 1.42z"/><path d="m455.74 245.68-39.74-5.68-24-24-40-8-8-40 17.55-81.91a199.9 199.9 0 0 1 94.19 159.59z"/></g><path d="m364 388 95.029 95.029a16.972 16.972 0 0 0 12 4.971 16.971 16.971 0 0 0 16.971-16.971 16.972 16.972 0 0 0 -4.971-12l-95.029-95.029z" fill="#e8ae48"/><path d="m383.029 366.059h33.941v67.882h-33.941z" fill="#ce882a" transform="matrix(.707 -.707 .707 .707 -165.685 400)"/><circle cx="336" cy="336" fill="#c9c9c7" r="88"/><circle cx="336" cy="336" fill="#0884a9" r="64"/><circle cx="336" cy="336" fill="#2aa2c3" r="40"/><path d="m488.686 453.372-69.5-69.5a96.055 96.055 0 1 0 -35.314 35.314l69.5 69.5a24.971 24.971 0 0 0 35.313-35.315zm-232.686-117.372a80 80 0 1 1 80 80 80.091 80.091 0 0 1 -80-80zm153.9 61.211 14.786 14.789-12.686 12.686-14.789-14.786a96.729 96.729 0 0 0 12.689-12.689zm61.129 82.789a8.913 8.913 0 0 1 -6.343-2.628l-41.372-41.372 12.686-12.686 41.373 41.373a8.97 8.97 0 0 1 -6.344 15.313z"/><path d="m266.12 447.729-26.837-59.04a8 8 0 0 0 -5.714-4.534l-40-8a8.006 8.006 0 0 0 -3.138 0l-40 8a8.008 8.008 0 0 0 -4.088 2.188l-15.3 15.3a191.719 191.719 0 0 1 -66.56-132.118l11.673 1.945 20.374 20.374 7.579 45.471a8 8 0 0 0 5.951 6.446l64 16a7.993 7.993 0 0 0 9.529-5.231l15.4-46.209 22.665-22.664a8 8 0 0 0 1-10.095l-32-48a8.052 8.052 0 0 0 -1-1.219l-25.478-25.478 21.268-15.95 44.026 14.675a8 8 0 0 0 8.187-1.933l30.187-30.187 45.471-7.578a8 8 0 0 0 6.685-7.892v-24a8.013 8.013 0 0 0 -.717-3.311l-25.92-57.028a190.73 190.73 0 0 1 59.151 22.417l-16.336 76.246a8.007 8.007 0 0 0 -.023 3.245l8 40a8 8 0 0 0 6.276 6.276l37.625 7.524 22.287 22.288a8 8 0 0 0 4.525 2.263l33.089 4.729c.02 1.116.043 2.231.043 3.351a191.7 191.7 0 0 1 -10.039 61.441l15.16 5.118a207.7 207.7 0 0 0 10.879-66.559c0-114.691-93.309-208-208-208s-208 93.309-208 208 93.309 208 208 208a207.7 207.7 0 0 0 66.559-10.879l-5.118-15.16a191.232 191.232 0 0 1 -51.321 9.768zm180.88-211.38-27.23-3.891-22.114-22.115a8.008 8.008 0 0 0 -4.088-2.188l-34.768-6.955-6.63-33.145 14.722-68.712a192.1 192.1 0 0 1 80.108 137.006zm-191-172.349c6.251 0 12.431.311 18.531.9l29.469 64.832v15.491l-41.315 6.885a8.007 8.007 0 0 0 -4.342 2.235l-28.5 28.5-43.313-14.433a8 8 0 0 0 -7.33 1.19l-32 24a8 8 0 0 0 -.857 12.057l31.44 31.44 27.923 41.883-19.363 19.363a8 8 0 0 0 -1.932 3.127l-13.658 40.972-51.724-12.931-7.138-42.826a8 8 0 0 0 -2.234-4.342l-24-24a8.01 8.01 0 0 0 -4.342-2.235l-17.28-2.879c1.489-104.595 87.022-189.229 191.965-189.229zm-100.056 335.369 36.056-7.211 34.413 6.883 22.184 48.8a190.9 190.9 0 0 1 -104.909-36.219z"/><path d="m376 168h16v16h-16z"/><path d="m264 120h16v16h-16z"/><path d="m144 144h16v16h-16z"/><path d="m152 272h16v16h-16z"/><path d="m192 408h16v16h-16z"/><path d="m336 272a64 64 0 1 0 64 64 64.072 64.072 0 0 0 -64-64zm0 112a48 48 0 1 1 48-48 48.054 48.054 0 0 1 -48 48z"/><path d="m469.005 186.48 15.211-4.96c-1.813-5.562-3.861-11.132-6.086-16.556l-14.8 6.072c2.07 5.064 3.983 10.257 5.675 15.444z"/><path d="m256 32a224.008 224.008 0 0 1 200.832 124.674l14.336-7.1a240 240 0 0 0 -215.168-133.574 243.445 243.445 0 0 0 -24.818 1.269l1.636 15.916a227.212 227.212 0 0 1 23.182-1.185z"/><path d="m32 256h-16a239.647 239.647 0 0 0 107.581 200.193l8.838-13.338a223.682 223.682 0 0 1 -100.419-186.855z"/></g></svg>